<?xml version="1.0" encoding="UTF-8"?>
<svg width="295px" height="256px" viewBox="0 0 295 256" version="1.1" xmlns="http://www.w3.org/2000/svg" xmlns:xlink="http://www.w3.org/1999/xlink">
    <!-- Generator: Sketch 47.1 (45422) - http://www.bohemiancoding.com/sketch -->
    <title>Combined Shape</title>
    <desc>Created with Sketch.</desc>
    <defs></defs>
    <g id="Page-1" stroke="none" stroke-width="1" fill="none" fill-rule="evenodd">
        <path d="M213.009329,75.8164748 L221.082359,1.57566285 L221.006556,1.44436823 L160.681795,45.6051586 L213.009329,75.8164748 Z M225.018547,97.3955447 L225.018547,158.349899 L293.95245,127.955081 L294,127.872722 L293.95245,127.790363 L225.018547,97.3955447 Z M212.933057,179.227561 L160.112494,209.723528 L221.006556,254.301075 L221.082359,254.16978 L212.933057,179.227561 Z M135.532601,210.085265 L83.1399762,179.836369 L75.0348091,254.372722 L135.532601,210.085265 Z M70,157.855757 L70,97.8896867 L2,127.872722 L70,157.855757 Z M83.0637044,75.2076668 L134.9633,45.2434215 L75.0348091,1.37272165 L83.0637044,75.2076668 Z M221.006556,1.44436823 L221.104427,1.37272165 L221.082359,1.57566285 L293.95245,127.790363 L294.139236,127.872722 L293.95245,127.955081 L221.082359,254.16978 L221.104427,254.372722 L221.006556,254.301075 L220.75,254.745443 L74.25,254.745443 L1,127.872722 L74.25,1 L220.75,1 L221.006556,1.44436823 Z M213.009329,75.8164748 L211.319618,91.3553171 L225.018547,97.3955447 L225.018547,82.75 L213.009329,75.8164748 Z M225.018547,158.349899 L211.319618,164.390126 L212.933057,179.227561 L225.018547,172.25 L225.018547,158.349899 Z M160.112494,209.723528 L148.069618,200.907531 L135.532601,210.085265 L147.509274,217 L160.112494,209.723528 Z M83.1399762,179.836369 L84.8196181,164.390126 L70,157.855757 L70,172.25 L83.1399762,179.836369 Z M70,97.8896867 L84.8196181,91.3553171 L83.0637044,75.2076668 L70,82.75 L70,97.8896867 Z M134.9633,45.2434215 L148.069618,54.8379126 L160.681795,45.6051586 L147.509274,38 L134.9633,45.2434215 Z" id="Combined-Shape" stroke="#979797" fill="#D8D8D8"></path>
    </g>
</svg>