<?xml version="1.0" encoding="UTF-8"?>
<svg width="442px" height="442px" viewBox="0 0 442 442" version="1.1" xmlns="http://www.w3.org/2000/svg" xmlns:xlink="http://www.w3.org/1999/xlink">
    <!-- Generator: Sketch 47.1 (45422) - http://www.bohemiancoding.com/sketch -->
    <title>Untitled</title>
    <desc>Created with Sketch.</desc>
    <defs></defs>
    <g id="Page-1" stroke="none" stroke-width="1" fill="none" fill-rule="evenodd">
        <path d="M164.861104,374.074741 C119.999246,357.617113 84.3828919,322.00076 67.9252613,277.138903 C64.7019906,277.704854 61.3854628,278 58,278 C26.5197693,278 1,252.480231 1,221 C1,189.519769 26.5197693,164 58,164 C61.3854628,164 64.7019906,164.295146 67.925256,164.861111 C84.3828873,119.999246 119.99924,84.3828919 164.861097,67.9252613 C164.295146,64.7019906 164,61.3854628 164,58 C164,26.5197693 189.519769,1 221,1 C252.480231,1 278,26.5197693 278,58 C278,61.3854628 277.704854,64.7019906 277.138889,67.925256 C322.000754,84.3828873 357.617108,119.99924 374.074739,164.861097 C377.298009,164.295146 380.614537,164 384,164 C415.480231,164 441,189.519769 441,221 C441,252.480231 415.480231,278 384,278 C380.614537,278 377.298009,277.704854 374.074744,277.138889 C357.617108,322.00076 322.000754,357.617113 277.138896,374.074741 C277.704854,377.298009 278,380.614537 278,384 C278,415.480231 252.480231,441 221,441 C189.519769,441 164,415.480231 164,384 C164,380.614537 164.295146,377.298009 164.861111,374.074744 Z" id="Combined-Shape" stroke="#000000" stroke-width="3"></path>
    </g>
</svg>